<?xml version="1.0" encoding="iso-8859-1"?>
<!-- Generator: Adobe Illustrator 19.0.0, SVG Export Plug-In . SVG Version: 6.00 Build 0)  -->
<svg version="1.1" id="Capa_1" xmlns="http://www.w3.org/2000/svg" xmlns:xlink="http://www.w3.org/1999/xlink" x="0px" y="0px"
	 viewBox="0 0 512 512" style="enable-background:new 0 0 512 512;" xml:space="preserve">
<g>
	<g>
		<g>
			<circle cx="237.714" cy="100.571" r="18.286"/>
			<path d="M296.852,85.219c-9.901-23.923-33.247-39.518-59.137-39.505c-25.889-0.013-49.234,15.581-59.136,39.502
				c-9.902,23.921-4.409,51.452,13.915,69.741c1.649-12.023,8.703-22.633,19.152-28.805c-14.111-14.349-13.976-37.403,0.302-51.585
				c14.278-14.182,37.333-14.162,51.586,0.045s14.348,37.262,0.212,51.586c2.033,1.226,3.963,2.614,5.773,4.15
				c7.434,6.204,12.229,15.004,13.413,24.614C301.257,136.674,306.753,109.142,296.852,85.219z"/>
			<path d="M257.629,144.25c-5.553-4.713-12.633-7.24-19.915-7.107c-13.63-1.285-25.799,8.532-27.429,22.125v8.183
				c17.332,8.351,37.525,8.351,54.857,0v-8.183C265.023,153.387,262.264,147.872,257.629,144.25z"/>
			<path d="M64,425.219V86.781C-21.333,183.457-21.333,328.543,64,425.219z"/>
			<path d="M448,86.781v338.433C533.333,328.54,533.333,183.455,448,86.781z"/>
			<path d="M420.571,0H91.429c-5.047,0.005-9.138,4.095-9.143,9.143v434.731c1.863,1.715,3.716,3.441,5.612,5.117
				c96.176,83.879,239.467,84.028,335.817,0.348c2.165-1.917,4.117-3.671,6-5.404V9.143C429.709,4.095,425.619,0.005,420.571,0z
				 M216.75,408.75l-54.857,54.857c-1.714,1.715-4.039,2.679-6.464,2.679c-2.425,0-4.75-0.964-6.464-2.679l-18.286-18.286
				c-3.532-3.577-3.513-9.334,0.041-12.888c3.554-3.554,9.311-3.572,12.888-0.04l11.822,11.821l48.393-48.393
				c3.577-3.532,9.334-3.513,12.888,0.041C220.264,399.416,220.282,405.173,216.75,408.75z M216.75,326.464l-54.857,54.857
				c-1.714,1.715-4.039,2.679-6.464,2.679c-2.425,0-4.75-0.964-6.464-2.679l-18.286-18.286c-3.532-3.577-3.513-9.334,0.041-12.888
				c3.554-3.554,9.311-3.572,12.888-0.04l11.822,11.821l48.393-48.393c3.577-3.532,9.334-3.513,12.888,0.041
				C220.264,317.131,220.282,322.888,216.75,326.464z M216.75,244.178l-54.857,54.857c-1.714,1.715-4.039,2.679-6.464,2.679
				c-2.425,0-4.75-0.964-6.464-2.679l-18.286-18.286c-2.334-2.305-3.254-5.683-2.412-8.852c0.842-3.17,3.318-5.645,6.488-6.488
				c3.17-0.842,6.548,0.078,8.852,2.412l11.822,11.821l48.393-48.393c3.577-3.532,9.334-3.513,12.888,0.041
				C220.264,234.845,220.282,240.602,216.75,244.178z M237.714,192c-38.517,0.098-71.975-26.471-80.606-64.008
				c-8.631-37.537,9.862-76.051,44.553-92.787c34.691-16.736,76.346-7.238,100.354,22.881
				c24.008,30.119,23.978,72.843-0.072,102.929l51.95,51.95c2.344,2.302,3.273,5.686,2.432,8.862
				c-0.841,3.176-3.322,5.657-6.498,6.498s-6.56-0.088-8.862-2.432l-51.95-51.95C274.473,185.635,256.373,192.006,237.714,192z
				 M374.857,448H265.143c-5.049,0-9.143-4.093-9.143-9.143c0-5.049,4.093-9.143,9.143-9.143h109.714
				c5.049,0,9.143,4.093,9.143,9.143C384,443.907,379.907,448,374.857,448z M374.857,365.714H265.143
				c-5.049,0-9.143-4.093-9.143-9.143c0-5.049,4.093-9.143,9.143-9.143h109.714c5.049,0,9.143,4.093,9.143,9.143
				C384,361.621,379.907,365.714,374.857,365.714z M374.857,283.429H265.143c-5.049,0-9.143-4.093-9.143-9.143
				c0-5.049,4.093-9.143,9.143-9.143h109.714c5.049,0,9.143,4.093,9.143,9.143C384,279.335,379.907,283.429,374.857,283.429z"/>
		</g>
	</g>
</g>
<g>
</g>
<g>
</g>
<g>
</g>
<g>
</g>
<g>
</g>
<g>
</g>
<g>
</g>
<g>
</g>
<g>
</g>
<g>
</g>
<g>
</g>
<g>
</g>
<g>
</g>
<g>
</g>
<g>
</g>
</svg>
