<svg xmlns="http://www.w3.org/2000/svg" width="1440" height="900"><path d="M716,371L798,182L471,173Z" fill="#00055c" stroke="#00055c" stroke-width="1.51"/><path d="M798,182L705,-83L471,173Z" fill="#02046a" stroke="#02046a" stroke-width="1.51"/><path d="M705,-83L541,-96L471,173Z" fill="#060379" stroke="#060379" stroke-width="1.51"/><path d="M471,173L514,535L716,371Z" fill="#000458" stroke="#000458" stroke-width="1.51"/><path d="M471,173L222,184L514,535Z" fill="#010469" stroke="#010469" stroke-width="1.51"/><path d="M185,-107L222,184L471,173Z" fill="#090385" stroke="#090385" stroke-width="1.51"/><path d="M798,182L1057,-36L705,-83Z" fill="#090372" stroke="#090372" stroke-width="1.51"/><path d="M1034,487L1047,160L798,182Z" fill="#08045f" stroke="#08045f" stroke-width="1.51"/><path d="M1034,487L798,182L716,371Z" fill="#030454" stroke="#030454" stroke-width="1.51"/><path d="M514,535L630,771L716,371Z" fill="#030352" stroke="#030352" stroke-width="1.51"/><path d="M242,618L516,635L514,535Z" fill="#070462" stroke="#070462" stroke-width="1.51"/><path d="M630,771L1034,487L716,371Z" fill="#03034e" stroke="#03034e" stroke-width="1.51"/><path d="M1047,160L1057,-36L798,182Z" fill="#0e036f" stroke="#0e036f" stroke-width="1.51"/><path d="M1173,142L1057,-36L1047,160Z" fill="#140376" stroke="#140376" stroke-width="1.51"/><path d="M705,-83L691,-272L541,-96Z" fill="#1c0f64" stroke="#1c0f64" stroke-width="1.51"/><path d="M541,-96L185,-107L471,173Z" fill="#0b0386" stroke="#0b0386" stroke-width="1.51"/><path d="M1057,-36L691,-272L705,-83Z" fill="#1b0d65" stroke="#1b0d65" stroke-width="1.51"/><path d="M1034,487L1173,142L1047,160Z" fill="#0e0365" stroke="#0e0365" stroke-width="1.51"/><path d="M516,635L630,771L514,535Z" fill="#08045c" stroke="#08045c" stroke-width="1.51"/><path d="M516,635L557,876L630,771Z" fill="#0f0461" stroke="#0f0461" stroke-width="1.51"/><path d="M132,481L242,618L514,535Z" fill="#060468" stroke="#060468" stroke-width="1.51"/><path d="M222,184L132,481L514,535Z" fill="#020468" stroke="#020468" stroke-width="1.51"/><path d="M400,-340L185,-107L541,-96Z" fill="#251274" stroke="#251274" stroke-width="1.51"/><path d="M-4,491L132,481L222,184Z" fill="#090573" stroke="#090573" stroke-width="1.51"/><path d="M691,-272L400,-340L541,-96Z" fill="#241462" stroke="#241462" stroke-width="1.51"/><path d="M630,771L1039,713L1034,487Z" fill="#0d0458" stroke="#0d0458" stroke-width="1.51"/><path d="M1034,487L1331,371L1173,142Z" fill="#110363" stroke="#110363" stroke-width="1.51"/><path d="M630,771L726,913L1039,713Z" fill="#10035b" stroke="#10035b" stroke-width="1.51"/><path d="M251,949L557,876L516,635Z" fill="#15036e" stroke="#15036e" stroke-width="1.51"/><path d="M1039,713L1144,660L1034,487Z" fill="#12045d" stroke="#12045d" stroke-width="1.51"/><path d="M132,481L-4,491L242,618Z" fill="#0b0472" stroke="#0b0472" stroke-width="1.51"/><path d="M242,618L251,949L516,635Z" fill="#120370" stroke="#120370" stroke-width="1.51"/><path d="M-127,139L-4,491L222,184Z" fill="#180a76" stroke="#180a76" stroke-width="1.51"/><path d="M1039,713L1067,895L1144,660Z" fill="#190365" stroke="#190365" stroke-width="1.51"/><path d="M557,876L726,913L630,771Z" fill="#130361" stroke="#130361" stroke-width="1.51"/><path d="M1144,660L1331,371L1034,487Z" fill="#10045b" stroke="#10045b" stroke-width="1.51"/><path d="M1273,-163L1046,-397L1057,-36Z" fill="#2a126b" stroke="#2a126b" stroke-width="1.51"/><path d="M691,-272L1046,-397L400,-340Z" fill="#23184c" stroke="#23184c" stroke-width="1.51"/><path d="M1057,-36L1046,-397L691,-272Z" fill="#26145f" stroke="#26145f" stroke-width="1.51"/><path d="M1273,-163L1057,-36L1173,142Z" fill="#1c0280" stroke="#1c0280" stroke-width="1.51"/><path d="M1411,186L1273,-163L1173,142Z" fill="#1d0082" stroke="#1d0082" stroke-width="1.51"/><path d="M400,-340L191,-389L185,-107Z" fill="#2e1972" stroke="#2e1972" stroke-width="1.51"/><path d="M185,-107L-52,-114L222,184Z" fill="#160297" stroke="#160297" stroke-width="1.51"/><path d="M1046,-397L191,-389L400,-340Z" fill="#2a1c53" stroke="#2a1c53" stroke-width="1.51"/><path d="M-67,-247L-52,-114L185,-107Z" fill="#30187f" stroke="#30187f" stroke-width="1.51"/><path d="M-52,-114L-127,139L222,184Z" fill="#200c88" stroke="#200c88" stroke-width="1.51"/><path d="M1331,371L1411,186L1173,142Z" fill="#190272" stroke="#190272" stroke-width="1.51"/><path d="M726,913L1067,895L1039,713Z" fill="#170364" stroke="#170364" stroke-width="1.51"/><path d="M1144,660L1432,510L1331,371Z" fill="#160362" stroke="#160362" stroke-width="1.51"/><path d="M557,876L427,1238L726,913Z" fill="#120866" stroke="#120866" stroke-width="1.51"/><path d="M1057,1311L1288,1061L1067,895Z" fill="#1c0c6c" stroke="#1c0c6c" stroke-width="1.51"/><path d="M-149,692L251,949L242,618Z" fill="#1a037e" stroke="#1a037e" stroke-width="1.51"/><path d="M-407,-35L-381,199L-127,139Z" fill="#311c6a" stroke="#311c6a" stroke-width="1.51"/><path d="M191,-389L-67,-247L185,-107Z" fill="#31197c" stroke="#31197c" stroke-width="1.51"/><path d="M1331,371L1679,408L1411,186Z" fill="#120967" stroke="#120967" stroke-width="1.51"/><path d="M1499,759L1432,510L1144,660Z" fill="#1a0567" stroke="#1a0567" stroke-width="1.51"/><path d="M1520,-268L1329,-291L1273,-163Z" fill="#31186d" stroke="#31186d" stroke-width="1.51"/><path d="M1273,-163L1329,-291L1046,-397Z" fill="#311866" stroke="#311866" stroke-width="1.51"/><path d="M-4,491L-149,692L242,618Z" fill="#1b0a6e" stroke="#1b0a6e" stroke-width="1.51"/><path d="M-274,643L-149,692L-4,491Z" fill="#251360" stroke="#251360" stroke-width="1.51"/><path d="M-381,199L-331,416L-127,139Z" fill="#2a1a5e" stroke="#2a1a5e" stroke-width="1.51"/><path d="M-127,139L-331,416L-4,491Z" fill="#231460" stroke="#231460" stroke-width="1.51"/><path d="M1411,186L1592,-23L1273,-163Z" fill="#1c0786" stroke="#1c0786" stroke-width="1.51"/><path d="M1669,187L1592,-23L1411,186Z" fill="#150d79" stroke="#150d79" stroke-width="1.51"/><path d="M-331,416L-274,643L-4,491Z" fill="#241556" stroke="#241556" stroke-width="1.51"/><path d="M0,1137L269,1187L251,949Z" fill="#180d81" stroke="#180d81" stroke-width="1.51"/><path d="M1592,-23L1520,-268L1273,-163Z" fill="#2a1575" stroke="#2a1575" stroke-width="1.51"/><path d="M1329,-291L1520,-268L1046,-397Z" fill="#341b66" stroke="#341b66" stroke-width="1.51"/><path d="M-407,-35L-127,139L-52,-114Z" fill="#30197d" stroke="#30197d" stroke-width="1.51"/><path d="M1679,408L1669,187L1411,186Z" fill="#100e6b" stroke="#100e6b" stroke-width="1.51"/><path d="M1288,1061L1499,759L1144,660Z" fill="#240272" stroke="#240272" stroke-width="1.51"/><path d="M251,949L427,1238L557,876Z" fill="#150972" stroke="#150972" stroke-width="1.51"/><path d="M1067,895L1288,1061L1144,660Z" fill="#21026f" stroke="#21026f" stroke-width="1.51"/><path d="M-97,1012L251,949L-149,692Z" fill="#290b7b" stroke="#290b7b" stroke-width="1.51"/><path d="M269,1187L427,1238L251,949Z" fill="#130f76" stroke="#130f76" stroke-width="1.51"/><path d="M1592,-23L1718,-126L1520,-268Z" fill="#251974" stroke="#251974" stroke-width="1.51"/><path d="M1679,408L1331,371L1432,510Z" fill="#0e095d" stroke="#0e095d" stroke-width="1.51"/><path d="M1718,738L1679,408L1432,510Z" fill="#0f0e5f" stroke="#0f0e5f" stroke-width="1.51"/><path d="M1057,1311L1067,895L726,913Z" fill="#160965" stroke="#160965" stroke-width="1.51"/><path d="M-317,-303L-407,-35L-52,-114Z" fill="#382467" stroke="#382467" stroke-width="1.51"/><path d="M-396,1021L-97,1012L-149,692Z" fill="#33186b" stroke="#33186b" stroke-width="1.51"/><path d="M-67,-247L-317,-303L-52,-114Z" fill="#382369" stroke="#382369" stroke-width="1.51"/><path d="M191,-389L-317,-303L-67,-247Z" fill="#382466" stroke="#382466" stroke-width="1.51"/><path d="M427,1238L738,1312L726,913Z" fill="#0b0f5f" stroke="#0b0f5f" stroke-width="1.51"/><path d="M427,1238L-367,1194L738,1312Z" fill="#0f1477" stroke="#0f1477" stroke-width="1.51"/><path d="M269,1187L-367,1194L427,1238Z" fill="#17157f" stroke="#17157f" stroke-width="1.51"/><path d="M-97,1012L0,1137L251,949Z" fill="#230f7e" stroke="#230f7e" stroke-width="1.51"/><path d="M1669,187L1718,-126L1592,-23Z" fill="#141181" stroke="#141181" stroke-width="1.51"/><path d="M1830,-301L1718,-126L1669,187Z" fill="#1d1979" stroke="#1d1979" stroke-width="1.51"/><path d="M1435,1219L1484,997L1288,1061Z" fill="#201071" stroke="#201071" stroke-width="1.51"/><path d="M1288,1061L1484,997L1499,759Z" fill="#240974" stroke="#240974" stroke-width="1.51"/><path d="M1499,759L1718,738L1432,510Z" fill="#170c66" stroke="#170c66" stroke-width="1.51"/><path d="M738,1312L1057,1311L726,913Z" fill="#0d0f5d" stroke="#0d0f5d" stroke-width="1.51"/><path d="M1057,1311L1291,1188L1288,1061Z" fill="#1c116d" stroke="#1c116d" stroke-width="1.51"/><path d="M1729,909L1718,738L1499,759Z" fill="#1b106c" stroke="#1b106c" stroke-width="1.51"/><path d="M1679,408L1830,-301L1669,187Z" fill="#0f1377" stroke="#0f1377" stroke-width="1.51"/><path d="M1057,1311L1435,1219L1291,1188Z" fill="#1c126e" stroke="#1c126e" stroke-width="1.51"/><path d="M1291,1188L1435,1219L1288,1061Z" fill="#1f1071" stroke="#1f1071" stroke-width="1.51"/><path d="M1484,997L1729,909L1499,759Z" fill="#210d71" stroke="#210d71" stroke-width="1.51"/><path d="M1818,1176L1729,909L1484,997Z" fill="#1b166e" stroke="#1b166e" stroke-width="1.51"/><path d="M1718,738L1830,-301L1679,408Z" fill="#091267" stroke="#091267" stroke-width="1.51"/><path d="M-274,643L-396,1021L-149,692Z" fill="#301a5f" stroke="#301a5f" stroke-width="1.51"/><path d="M-97,1012L-367,1194L0,1137Z" fill="#2c1d6b" stroke="#2c1d6b" stroke-width="1.51"/><path d="M-331,416L-396,1021L-274,643Z" fill="#2e1c55" stroke="#2e1c55" stroke-width="1.51"/><path d="M-381,199L-396,1021L-331,416Z" fill="#281b4a" stroke="#281b4a" stroke-width="1.51"/><path d="M-407,-35L-396,1021L-381,199Z" fill="#271c48" stroke="#271c48" stroke-width="1.51"/><path d="M1718,-126L1830,-301L1520,-268Z" fill="#292069" stroke="#292069" stroke-width="1.51"/><path d="M1520,-268L1830,-301L1046,-397Z" fill="#311f63" stroke="#311f63" stroke-width="1.51"/><path d="M1818,1176L1830,-301L1718,738Z" fill="#08125b" stroke="#08125b" stroke-width="1.51"/><path d="M-396,1021L-367,1194L-97,1012Z" fill="#302161" stroke="#302161" stroke-width="1.51"/><path d="M0,1137L-367,1194L269,1187Z" fill="#251a74" stroke="#251a74" stroke-width="1.51"/><path d="M1729,909L1818,1176L1718,738Z" fill="#1b156e" stroke="#1b156e" stroke-width="1.51"/><path d="M1435,1219L1818,1176L1484,997Z" fill="#1a176d" stroke="#1a176d" stroke-width="1.51"/><path d="M1057,1311L1818,1176L1435,1219Z" fill="#1a166e" stroke="#1a166e" stroke-width="1.51"/></svg>